<svg xmlns="http://www.w3.org/2000/svg" viewBox="0 0 32 32">
  <defs>
    <linearGradient id="moonGradient" x1="0%" y1="0%" x2="100%" y2="100%">
      <stop offset="0%" style="stop-color:#831843;stop-opacity:1" />
      <stop offset="100%" style="stop-color:#be185d;stop-opacity:1" />
    </linearGradient>
  </defs>
  <!-- Moon shape -->
  <path d="M16 4C9.4 4 4 9.4 4 16s5.4 12 12 12c2.2 0 4.3-.6 6.1-1.6C21.4 25.7 21 24.9 21 24c0-2.2 1.8-4 4-4 .9 0 1.7.3 2.4.8 1-1.8 1.6-3.9 1.6-6.1C28 9.4 22.6 4 16 4zm0 20c-4.4 0-8-3.6-8-8s3.6-8 8-8 8 3.6 8 8c0 .7-.1 1.4-.3 2.1-.6-.1-1.2-.1-1.7-.1-3.3 0-6 2.7-6 6 0 .6 .1 1.1 .2 1.7-.7.2-1.4.3-2.2.3z" fill="url(#moonGradient)"/>
  <!-- K letter stylized -->
  <text x="16" y="20" font-family="serif" font-size="12" font-weight="bold" text-anchor="middle" fill="white">K</text>
</svg>